<svg width="19" height="19" viewBox="0 0 19 19" fill="none" xmlns="http://www.w3.org/2000/svg">
<path d="M4 1C3.2 1 2.66667 1.33333 2.5 1.5C2 2 1 3.2 1 4C1 4.85776 1.36787 7.18701 1.78808 8.14784C1.89435 8.39084 2.04039 8.64616 2.196 8.86093C3.07733 10.0773 6.68731 13.6873 7.99997 15L8 15C9.5 16.5 11.5 17.5 14 17.5C16.5 17.5 18 16 18 15C18 14 14 11 13.5 11C13 11 11.5 13 11 13C10.5 13 5.5 8.5 5.5 7.5C5.5 6.90893 6.59178 6.09949 7.36369 5.51537C7.74381 5.22773 7.81145 4.71387 7.53179 4.32784C6.46471 2.8549 4.86137 1 4 1Z" stroke="black" stroke-width="1.5" stroke-linejoin="round"/>
</svg>
